<?xml version="1.0" encoding="utf-8"?>
<!-- Generator: Adobe Illustrator 16.0.0, SVG Export Plug-In . SVG Version: 6.00 Build 0)  -->
<!DOCTYPE svg PUBLIC "-//W3C//DTD SVG 1.1//EN" "http://www.w3.org/Graphics/SVG/1.1/DTD/svg11.dtd">
<svg version="1.1" id="Layer_1" xmlns="http://www.w3.org/2000/svg" xmlns:xlink="http://www.w3.org/1999/xlink" x="0px" y="0px"
	 width="1776.178px" height="480.048px" viewBox="0 0 1776.178 480.048" enable-background="new 0 0 1776.178 480.048"
	 xml:space="preserve">
<g>
	<g>
		<path fill="#FFFFFF" d="M582.064,295.546c2.098-2.622,5.769-2.885,8.127-0.787c13.633,11.01,36.442,23.857,60.3,23.597
			c15.994,0,30.412-4.721,40.376-12.062c10.225-7.341,15.73-17.041,15.73-27.266c0-10.486-4.981-18.354-14.945-25.168
			c-9.962-6.556-24.644-11.537-42.472-14.945h-0.524c-17.042-3.146-31.986-7.866-43.259-15.469
			c-11.274-7.34-18.877-18.354-18.877-31.985c0-13.895,7.604-25.956,19.138-34.345c11.538-8.391,27.005-13.371,44.309-13.371
			c24.121,0,42.21,11.798,56.631,21.236c2.622,1.835,3.408,5.243,1.573,8.127c-1.573,2.621-5.244,3.409-7.867,1.572
			c-14.418-9.437-30.148-19.4-50.337-19.4c-14.943,0-28.314,4.458-37.491,11.012c-9.176,6.816-14.42,15.73-14.42,25.169
			c0.263,9.177,4.458,15.993,13.634,22.284c9.177,6.293,22.81,10.75,39.326,13.896h0.524c18.353,3.407,34.607,8.651,46.667,16.779
			c12.062,7.865,20.189,19.926,20.189,34.607s-8.391,27.79-20.713,36.705c-12.322,8.913-28.839,14.418-47.192,14.418
			c-28.053-0.261-52.436-14.418-67.642-26.478C580.491,301.575,580.229,297.905,582.064,295.546z"/>
		<path fill="#FFFFFF" d="M650.492,331.997h-0.018c-30.709-0.287-56.269-16.963-68.77-26.879c-3.111-2.761-3.566-7.531-1.096-10.706
			c1.478-1.849,3.63-2.897,5.915-2.897c1.806,0,3.543,0.664,4.895,1.865c6.67,5.382,30.791,23.134,58.358,23.134l0.697-0.003
			c14.89,0,29.208-4.267,39.302-11.702c9.666-6.939,14.979-16.091,14.979-25.78c0-9.664-4.362-16.957-14.142-23.646
			c-9.439-6.211-23.445-11.137-41.605-14.622l-0.685-0.031c-19.082-3.522-33.461-8.677-43.957-15.754
			c-12.688-8.26-19.69-20.169-19.69-33.515c0-13.778,7.066-26.506,19.899-35.837c12.169-8.85,28.29-13.725,45.393-13.725
			c24.733,0,42.98,11.943,57.643,21.537c3.532,2.473,4.421,7.042,2.119,10.663c-1.261,2.097-3.659,3.427-6.236,3.427
			c-1.531,0-3-0.461-4.245-1.333c-12.954-8.478-29.133-19.068-49.28-19.068c-13.651,0-26.925,3.889-36.418,10.669
			c-8.791,6.53-13.647,14.942-13.647,23.667c0.245,8.538,4.083,14.764,12.833,20.761c8.341,5.723,21.279,10.286,38.457,13.574
			l0.687,0.03c20.474,3.803,35.964,9.384,47.361,17.064c13.535,8.826,21.003,21.666,21.003,36.138
			c0,14.401-7.828,28.325-21.478,38.2C685.601,326.753,668.457,331.997,650.492,331.997z M586.523,295.205
			c-1.159,0-2.258,0.544-3.017,1.495c-1.263,1.619-1.007,4.191,0.569,5.595c12.051,9.553,36.821,25.731,66.426,26.012
			c17.19-0.002,33.562-4.997,46.102-14.069c12.677-9.171,19.948-22.005,19.948-35.209c0-13.183-6.873-24.923-19.351-33.061
			c-10.962-7.389-25.947-12.774-45.829-16.481l-0.701-0.032c-18.016-3.433-31.108-8.074-40.023-14.186
			c-9.703-6.654-14.156-13.98-14.437-23.756c0-9.975,5.386-19.438,15.165-26.701c10.133-7.237,24.189-11.378,38.592-11.378
			c21.247,0,37.938,10.926,51.349,19.703c1.793,1.255,4.278,0.674,5.273-0.979c1.288-2.026,0.845-4.34-1.049-5.666
			c-14.204-9.294-31.94-20.902-55.573-20.902c-16.329,0-31.679,4.624-43.224,13.019c-11.851,8.619-18.377,20.286-18.377,32.853
			c0,12.056,6.406,22.864,18.039,30.439c10.059,6.785,23.93,11.741,42.421,15.17l0.701,0.032
			c18.722,3.578,33.236,8.698,43.14,15.217c10.771,7.367,15.776,15.848,15.776,26.709c0,10.911-5.86,21.127-16.5,28.765
			c-10.694,7.881-25.81,12.407-41.452,12.407l-0.717,0.004c-28.778,0-53.77-18.377-60.742-24.01
			C588.291,295.537,587.422,295.205,586.523,295.205z"/>
	</g>
	<g>
		<path fill="#FFFFFF" d="M778.439,152.659c0-3.41,2.885-6.293,6.293-6.293h0.786h51.125c28.838,0,52.172,23.597,52.172,52.436
			c0,28.84-23.333,52.173-52.172,52.173l-45.357,0.524v72.1c0,3.409-2.883,6.292-6.555,6.292c-3.408,0-6.293-2.883-6.293-6.292
			V152.659z M836.644,238.652c21.761-0.261,39.589-18.09,39.589-39.851c0-21.76-17.828-39.588-39.589-39.588h-45.357v79.438H836.644
			z"/>
		<path fill="#FFFFFF" d="M784.732,331.736c-4.411,0-8.138-3.728-8.138-8.138V152.659c0-4.411,3.728-8.139,8.138-8.139h51.912
			c29.785,0,54.018,24.35,54.018,54.281c0,29.786-24.232,54.019-54.018,54.019l-43.512,0.502v70.276
			C793.132,328.085,789.364,331.736,784.732,331.736z M784.732,148.212c-2.37,0-4.448,2.077-4.448,4.447v170.939
			c0,2.369,2.078,4.447,4.448,4.447c2.597,0,4.709-1.996,4.709-4.447v-73.923l47.181-0.546c27.772,0,50.349-22.576,50.349-50.328
			c0-27.896-22.577-50.59-50.327-50.59H784.732z M791.287,240.497h-1.845v-83.129h47.202c22.847,0,41.435,18.587,41.435,41.434
			c0,22.718-18.579,41.422-41.414,41.695H791.287z M793.132,236.808h43.512c20.801-0.252,37.743-17.299,37.743-38.006
			c0-20.812-16.931-37.742-37.743-37.742h-43.512V236.808z"/>
	</g>
	<g>
		<path fill="#FFFFFF" d="M944.401,152.659c0-3.41,2.886-6.293,6.293-6.293h0.524h93.858c3.671,0,6.293,2.883,6.293,6.293
			c0,3.67-2.622,6.555-6.293,6.555h-87.829v72.623h76.818c3.408,0,6.294,2.883,6.294,6.555c0,3.407-2.886,6.293-6.294,6.293h-76.818
			v72.359h87.829c3.671,0,6.293,2.884,6.293,6.555c0,3.409-2.622,6.292-6.293,6.292h-93.598h-0.785h-0.524
			c-3.146-0.262-5.769-2.883-5.769-6.292V152.659z"/>
		<path fill="#FFFFFF" d="M1045.077,331.736H950.17c-4.405-0.36-7.613-3.856-7.613-8.138V152.659c0-4.411,3.726-8.139,8.138-8.139
			h94.383c4.563,0,8.138,3.576,8.138,8.139c0,4.789-3.497,8.4-8.138,8.4h-85.983v68.931h74.973c4.486,0,8.139,3.769,8.139,8.401
			c0,4.41-3.728,8.138-8.139,8.138h-74.973v68.668h85.983c4.641,0,8.138,3.612,8.138,8.401
			C1053.215,328.16,1049.641,331.736,1045.077,331.736z M950.694,148.212c-2.369,0-4.447,2.077-4.447,4.447v170.939
			c0,2.345,1.751,4.259,4.077,4.453l1.155-0.006h93.598c2.536,0,4.447-1.913,4.447-4.447c0-2.729-1.871-4.71-4.447-4.71h-89.675
			v-76.05h78.664c2.371,0,4.447-2.078,4.447-4.447c0-2.598-1.995-4.71-4.447-4.71h-78.664v-76.313h89.675
			c2.576,0,4.447-1.979,4.447-4.709c0-2.535-1.911-4.447-4.447-4.447H950.694z"/>
	</g>
	<g>
		<path fill="#FFFFFF" d="M1200.291,143.745c22.545,0,43.258,7.865,59.25,20.186c2.884,2.361,3.408,6.819,1.049,9.178
			c-2.097,3.146-6.293,3.409-8.913,1.312c-14.159-11.013-31.985-17.828-51.386-17.828c-45.883,0-82.587,35.917-82.587,80.749
			c0,43.784,36.704,79.703,82.587,79.703c19.4,0,37.227-6.292,50.861-17.83c3.145-2.096,7.341-1.572,9.176,1.574
			c2.621,2.361,2.097,7.078-0.787,9.177c-15.992,12.322-36.705,19.926-59.25,19.926c-52.699,0-95.436-41.425-95.436-92.55
			C1104.855,185.169,1147.592,144.008,1200.291,143.745z"/>
		<path fill="#FFFFFF" d="M1200.291,331.736c-53.64,0-97.28-42.346-97.28-94.396c0-25.65,10.126-49.652,28.513-67.586
			c18.284-17.832,42.704-27.727,68.758-27.855c21.725,0,43.17,7.306,60.387,20.57c1.954,1.599,3.12,3.916,3.243,6.395
			c0.106,2.103-0.563,4.019-1.887,5.414c-1.484,2.127-3.821,3.342-6.442,3.342c-1.843,0-3.641-0.625-5.059-1.76
			c-14.646-11.394-32.023-17.423-50.232-17.423c-44.521,0-80.741,35.396-80.741,78.903c0,42.931,36.22,77.856,80.741,77.856
			c18.774,0,36.415-6.175,49.67-17.392l0.168-0.126c1.54-1.026,3.295-1.567,5.085-1.567c2.733,0,5.165,1.305,6.562,3.505
			c1.444,1.421,2.204,3.473,2.088,5.679c-0.129,2.477-1.339,4.782-3.238,6.161C1243.672,324.523,1222.229,331.736,1200.291,331.736z
			 M1200.291,145.59c-52.477,0.262-93.59,40.565-93.59,91.751c0,50.015,41.984,90.705,93.59,90.705
			c21.128,0,41.77-6.94,58.125-19.543c1.03-0.751,1.689-2.041,1.76-3.4c0.063-1.195-0.331-2.268-1.08-2.943l-0.359-0.441
			c-0.713-1.219-1.994-1.916-3.522-1.916c-1.013,0-2.057,0.317-2.957,0.895c-13.909,11.731-32.36,18.192-51.966,18.192
			c-46.556,0-84.432-36.583-84.432-81.548c0-45.541,37.876-82.594,84.432-82.594c19.035,0,37.196,6.3,52.52,18.217
			c0.785,0.629,1.764,0.966,2.771,0.966c1.425,0,2.69-0.673,3.474-1.845l0.229-0.281c0.662-0.661,0.997-1.64,0.94-2.756
			c-0.071-1.419-0.763-2.798-1.853-3.688C1241.839,152.623,1221.197,145.59,1200.291,145.59z"/>
	</g>
	<g>
		<path fill="#FFFFFF" d="M1328.239,153.446c0-3.672,2.886-6.556,6.293-6.556c3.671,0,6.554,2.884,6.554,6.556v106.181
			l110.901-110.901c2.622-2.359,6.817-2.359,8.913,0c2.623,2.361,2.623,6.555,0,9.176l-70.262,70.264l71.834,91.238
			c2.099,2.884,1.574,6.555-1.048,9.177c-1.31,1.049-2.62,1.311-4.192,1.311c-1.838,0-3.41-0.524-4.721-2.359l-71.049-90.19
			l-40.377,40.377v45.881c0,3.409-2.883,6.292-6.554,6.292c-3.407,0-6.293-2.883-6.293-6.292V153.446z"/>
		<path fill="#FFFFFF" d="M1457.232,331.736c-2.721,0-4.697-0.995-6.221-3.133l-69.713-88.488l-38.367,38.367v45.116
			c0,4.486-3.769,8.138-8.399,8.138c-4.412,0-8.138-3.728-8.138-8.138V153.446c0-4.633,3.65-8.4,8.138-8.4
			c4.71,0,8.399,3.689,8.399,8.4v101.725l107.751-107.75c1.653-1.492,3.8-2.311,5.96-2.311c2.193,0,4.218,0.841,5.567,2.312
			c1.556,1.437,2.442,3.413,2.501,5.578c0.06,2.293-0.854,4.557-2.505,6.206l-69.104,69.105l70.824,89.952
			c2.642,3.631,2.146,8.279-1.196,11.621l-0.151,0.136C1460.689,331.532,1458.816,331.736,1457.232,331.736z M1381.626,234.568
			l72.334,91.82c0.879,1.226,1.75,1.657,3.272,1.657c1.347,0,2.162-0.231,2.961-0.844c1.975-2.029,2.285-4.656,0.789-6.713
			l-72.807-92.47l71.42-71.423c0.938-0.939,1.458-2.215,1.424-3.5c-0.031-1.176-0.512-2.241-1.354-3l-0.146-0.146
			c-1.343-1.508-4.527-1.45-6.299,0.146l-113.98,113.984V153.446c0-2.641-2.068-4.71-4.708-4.71c-2.453,0-4.448,2.112-4.448,4.71
			v170.152c0,2.369,2.079,4.447,4.448,4.447c2.597,0,4.708-1.996,4.708-4.447v-46.645L1381.626,234.568z"/>
	</g>
	<g>
		<path fill="#FFFFFF" d="M1517.802,295.546c2.099-2.622,5.769-2.885,8.128-0.787c13.632,11.01,36.441,23.857,60.299,23.597
			c15.995,0,30.412-4.721,40.377-12.062c10.225-7.341,15.729-17.041,15.729-27.266c0-10.486-4.981-18.354-14.944-25.168
			c-9.961-6.556-24.643-11.537-42.471-14.945h-0.526c-17.041-3.146-31.983-7.866-43.258-15.469
			c-11.274-7.34-18.878-18.354-18.878-31.985c0-13.895,7.604-25.956,19.139-34.345c11.537-8.391,27.004-13.371,44.309-13.371
			c24.12,0,42.209,11.798,56.63,21.236c2.622,1.835,3.407,5.243,1.574,8.127c-1.574,2.621-5.244,3.409-7.866,1.572
			c-14.419-9.437-30.148-19.4-50.338-19.4c-14.943,0-28.315,4.458-37.491,11.012c-9.177,6.816-14.421,15.73-14.421,25.169
			c0.263,9.177,4.459,15.993,13.636,22.284c9.176,6.293,22.81,10.75,39.324,13.896h0.524c18.354,3.407,34.607,8.651,46.667,16.779
			c12.062,7.865,20.189,19.926,20.189,34.607s-8.392,27.79-20.714,36.705c-12.32,8.913-28.839,14.418-47.191,14.418
			c-28.052-0.261-52.436-14.418-67.642-26.478C1516.228,301.575,1515.965,297.905,1517.802,295.546z"/>
		<path fill="#FFFFFF" d="M1586.229,331.997h-0.018c-30.709-0.287-56.268-16.963-68.77-26.879c-3.11-2.761-3.566-7.531-1.096-10.706
			c1.479-1.849,3.631-2.897,5.914-2.897c1.805,0,3.543,0.664,4.896,1.865c6.669,5.382,30.79,23.134,58.356,23.134l0.697-0.003
			c14.891,0,29.208-4.267,39.303-11.702c9.666-6.939,14.979-16.091,14.979-25.78c0-9.664-4.362-16.957-14.142-23.646
			c-9.439-6.211-23.445-11.137-41.604-14.622l-0.686-0.031c-19.081-3.522-33.46-8.677-43.955-15.754
			c-12.689-8.26-19.691-20.169-19.691-33.515c0-13.778,7.066-26.506,19.898-35.837c12.171-8.85,28.289-13.725,45.395-13.725
			c24.734,0,42.979,11.943,57.643,21.537c3.531,2.473,4.422,7.042,2.118,10.663c-1.26,2.097-3.659,3.427-6.235,3.427
			c-1.532,0-3-0.461-4.246-1.333c-12.954-8.478-29.132-19.068-49.279-19.068c-13.652,0-26.925,3.889-36.42,10.669
			c-8.789,6.53-13.647,14.942-13.647,23.667c0.245,8.538,4.085,14.764,12.835,20.761c8.341,5.723,21.277,10.286,38.455,13.574
			l0.688,0.03c20.473,3.803,35.963,9.384,47.361,17.064c13.534,8.826,21.002,21.666,21.002,36.138
			c0,14.401-7.826,28.325-21.477,38.2C1621.337,326.753,1604.194,331.997,1586.229,331.997z M1522.26,295.205
			c-1.158,0-2.258,0.544-3.018,1.495c-1.263,1.619-1.006,4.191,0.57,5.595c12.052,9.553,36.82,25.731,66.426,26.012
			c17.191-0.002,33.562-4.997,46.102-14.069c12.678-9.171,19.949-22.005,19.949-35.209c0-13.183-6.873-24.923-19.352-33.061
			c-10.963-7.389-25.945-12.774-45.83-16.481l-0.699-0.032c-18.016-3.433-31.109-8.074-40.023-14.186
			c-9.705-6.654-14.156-13.98-14.438-23.756c0-9.975,5.387-19.438,15.166-26.701c10.133-7.237,24.188-11.378,38.592-11.378
			c21.247,0,37.938,10.926,51.348,19.703c1.793,1.255,4.278,0.674,5.274-0.979c1.287-2.026,0.845-4.34-1.05-5.666
			c-14.203-9.294-31.939-20.902-55.572-20.902c-16.33,0-31.679,4.624-43.225,13.019c-11.85,8.619-18.378,20.286-18.378,32.853
			c0,12.056,6.408,22.864,18.04,30.439c10.061,6.785,23.931,11.741,42.42,15.17l0.702,0.032c18.723,3.578,33.237,8.698,43.14,15.217
			c10.772,7.367,15.776,15.848,15.776,26.709c0,10.911-5.86,21.127-16.499,28.765c-10.694,7.881-25.811,12.407-41.453,12.407
			l-0.717,0.004c-28.777,0-53.77-18.377-60.741-24.01C1524.027,295.537,1523.16,295.205,1522.26,295.205z"/>
	</g>
</g>
<g>
	
		<image overflow="visible" opacity="0" width="847" height="1001" xlink:href="8C382EA2294A9951.png"  transform="matrix(0.24 0 0 0.24 179.4229 128.1113)">
	</image>
	<g>
		<g>
			<g>
				<g>
					<path fill="#FFFFFF" d="M358.682,314.934c0,16.234-13.188,29.416-29.371,29.416c-16.224,0-29.411-13.182-29.411-29.416
						c0-16.224,13.187-29.407,29.411-29.407C345.494,285.526,358.682,298.71,358.682,314.934z"/>
				</g>
				<g>
					<path fill="#FFFFFF" d="M264.835,252.771c0,20.242-16.47,36.668-36.714,36.668c-20.232,0-36.698-16.426-36.698-36.668
						c0-20.232,16.466-36.705,36.698-36.705C248.365,216.065,264.835,232.538,264.835,252.771z"/>
				</g>
				<g>
					<path fill="#FDBA23" d="M315.197,162.511c-0.187,13.111-11.74,23.47-24.811,21.944c-8.503-1.037-16.356-6.746-19.109-15.018
						c-2.846-8.412-0.629-18.152,6.328-23.953c6.648-5.607,16.112-6.989,24.1-3.372
						C309.786,145.771,315.062,153.616,315.197,162.511c0-0.34-0.526-0.727-1.053-0.815c-0.474-0.103-0.938,0-0.938,0.476
						c0,0.375,0.464,0.67,0.938,0.762C314.671,163.078,315.197,162.975,315.197,162.511z"/>
					<path fill="#FFFFFF" d="M314.195,162.314c0,0.196,0,0.424-0.051,0.618c-0.474-0.092-0.938-0.387-0.938-0.762
						c0-0.476,0.464-0.578,0.938-0.476C314.195,161.883,314.195,162.119,314.195,162.314z"/>
					<path fill="#FFFFFF" d="M315.197,162.511c0,0.464-0.526,0.567-1.053,0.422c-0.474-0.092-0.938-0.387-0.938-0.762
						c0-0.476,0.464-0.578,0.938-0.476C314.671,161.784,315.197,162.171,315.197,162.511z"/>
				</g>
				<g>
					<g>
						<path fill="#FFFFFF" d="M320.571,215.299c0.047,0.19,0.099,0.336,0.192,0.48c-0.042-0.094-0.093-0.196-0.145-0.29
							C320.618,215.396,320.571,215.345,320.571,215.299z"/>
						<path fill="#70CCD8" d="M326.034,213.892v4.258h0.479c0.145-0.772,0.248-1.546,0.248-2.37v-0.049
							C326.761,215.006,326.461,214.381,326.034,213.892z M325.987,220.128l0.047,0.051v-0.145
							C326.034,220.034,326.034,220.128,325.987,220.128z M324.823,212.738c0.387,0.287,0.865,0.674,1.211,1.153v-0.479
							L324.823,212.738z"/>
						<path fill="#FFFFFF" d="M326.513,218.149c-0.103,0.629-0.287,1.257-0.479,1.885v-1.885H326.513z"/>
						<path fill="#FFFFFF" d="M326.034,220.034v0.145l-0.047-0.051C326.034,220.128,326.034,220.034,326.034,220.034z"/>
						<path fill="#FFFFFF" d="M326.803,213.32l-0.042,2.41c0-0.725-0.3-1.35-0.727-1.839v-0.479l-1.211-0.674
							c0.387,0.287,0.865,0.674,1.211,1.153v6.143c0,0,0,0.094-0.047,0.094c-1.978,6.669-8.122,11.688-15.17,11.688
							c-0.918,0-1.836-0.099-2.799-0.29c-8.355-1.598-14.734-9.131-14.591-17.146c0.243-9.808,8.938-17.63,18.698-15.744
							c7.391,1.443,13.235,7.531,14.388,14.684H326.803z"/>
					</g>
					<g>
						<path fill="#70CCD8" d="M320.571,215.299c0.047,0.19,0.099,0.336,0.192,0.48c-0.042-0.094-0.093-0.196-0.145-0.29
							C320.618,215.396,320.571,215.345,320.571,215.299z"/>
						<path fill="#70CCD8" d="M326.034,213.412v0.479c-0.346-0.479-0.824-0.866-1.211-1.153L326.034,213.412z"/>
						<path fill="#70CCD8" d="M326.034,220.034v0.145l-0.047-0.051C326.034,220.128,326.034,220.034,326.034,220.034z"/>
					</g>
					<g>
						<path fill="#70CCD8" d="M320.571,215.299c0.047,0.19,0.099,0.336,0.192,0.48c-0.042-0.094-0.093-0.196-0.145-0.29
							C320.618,215.396,320.571,215.345,320.571,215.299z"/>
						<path fill="#70CCD8" d="M326.761,215.73v2.419h-0.727v-4.258C326.461,214.381,326.761,215.006,326.761,215.73z"/>
					</g>
				</g>
				<g>
					<g>
						<path fill="#FFFFFF" d="M286.907,314.645l0.965,0.051c-0.14,8.452-6.859,15.503-15.601,16.421
							c-0.577,0.052-1.153,0.092-1.736,0.092c-4.488,0-8.935-1.834-12.076-5.071c-2.889-2.947-4.446-6.854-4.343-10.961
							c0.14-8.447,6.859-15.503,15.601-16.424c9.704-1.012,17.96,6.327,18.155,15.847L286.907,314.645z"/>
					</g>
				</g>
				<g>
					<g>
						<path fill="#FFFFFF" d="M304.724,252.482v0.876c-0.381,4.205-3.71,7.246-8.009,7.246h-0.483
							c-2.124-0.144-4.3-1.217-5.846-2.901c-1.35-1.552-2.029-3.375-1.936-5.263c0.247-4.349,3.43-7.389,7.822-7.389
							C300.143,245.052,304.291,247.605,304.724,252.482z"/>
					</g>
				</g>
				<g>
					<g>
						<path fill="#FFFFFF" d="M292.17,277.651l-0.046,0.29c-0.387,4.535-3.912,8.019-8.157,8.019c-0.393,0-0.825-0.052-1.208-0.104
							c-4.638-0.722-8.213-4.927-7.972-9.365c0.242-5.116,4.397-9.033,9.364-8.307c4.352,0.677,7.638,4.294,7.974,8.839
							L292.17,277.651z"/>
					</g>
				</g>
				<g>
					<g>
						<path fill="#FFFFFF" d="M342.015,266.783l-0.051,0.146c-0.34,4.683-4.732,7.244-8.689,7.244c-2.319,0-4.298-0.818-5.648-2.22
							c-1.258-1.305-1.839-3.041-1.743-5.024c0.239-4.83,4.545-7.438,8.452-7.438c4.247,0,7.442,2.896,7.627,6.999L342.015,266.783z
							"/>
					</g>
				</g>
				<g>
					<g>
						<path fill="#FFFFFF" d="M279.09,218.727l-0.056,0.293c-0.387,4.148-3.67,7.292-7.674,7.292l-0.443-0.051
							c-2.308-0.094-4.627-1.205-6.122-2.896c-1.311-1.452-1.939-3.186-1.846-5.071c0.248-4.401,3.483-7.493,7.92-7.493
							c3.727,0,7.685,2.521,8.164,7.25v0.438L279.09,218.727z"/>
					</g>
				</g>
				<g>
					<g>
						<path fill="#FFFFFF" d="M257.492,187.96c0,0.241,0,0.482-0.046,0.726c-0.474-0.046-0.963-0.294-0.963-0.772
							c0-0.485,0.49-0.675,0.963-0.675C257.492,187.475,257.492,187.722,257.492,187.96z"/>
						<path fill="#70CCD8" d="M259.476,188.011h-0.582c0,0.042,0,0.042,0,0.042h1.015v-0.093L259.476,188.011z M257.445,187.238
							c-0.474,0-0.963,0.189-0.963,0.675c0,0.479,0.49,0.727,0.963,0.772c0.536,0.047,1.062-0.14,1.062-0.578v-0.055
							c0,0,0,0,0-0.042C258.508,187.526,257.981,187.238,257.445,187.238z"/>
					</g>
					<g>
						<path fill="#FFFFFF" d="M258.508,188.011c0,0.042,0,0.042,0,0.042v0.055c0,0.438-0.526,0.625-1.062,0.578
							c-0.474-0.046-0.963-0.294-0.963-0.772c0-0.485,0.49-0.675,0.963-0.675C257.981,187.238,258.508,187.526,258.508,188.011z"/>
						<path fill="#70CCD8" d="M257.445,187.238c-0.474,0-0.963,0.189-0.963,0.675c0,0.479,0.49,0.727,0.963,0.772
							c0.536,0.047,1.062-0.14,1.062-0.578v-0.055c0,0,0,0,0-0.042C258.508,187.526,257.981,187.238,257.445,187.238z"/>
						<path fill="#FFFFFF" d="M259.909,188.053h-1.015c0,0,0,0,0-0.042h0.582l0.433-0.051l1.01-0.047
							c-0.237-6.906-5.741-12.312-13.13-12.513c-6.763,0-12.417,5.56-12.659,12.414c-0.185,6.812,5.557,12.514,12.802,12.71h0.392
							c6.709,0,12.359-5.514,12.596-12.323l-1.01-0.094V188.053z M257.445,188.686c-0.474-0.046-0.963-0.294-0.963-0.772
							c0-0.485,0.49-0.675,0.963-0.675c0.536,0,1.062,0.288,1.062,0.772c0,0.042,0,0.042,0,0.042v0.055
							C258.508,188.546,257.981,188.732,257.445,188.686z"/>
					</g>
				</g>
			</g>
		</g>
	</g>
</g>
<g>
	
		<image overflow="visible" opacity="0" width="1654" height="1654" xlink:href="8C382EA2294A9953.png"  transform="matrix(0.24 0 0 0.24 94.2554 50.5732)">
	</image>
	<g>
		<g>
			<path fill="#FFFFFF" d="M286.63,62.573c-99.474,0-180.375,80.901-180.375,180.375c0,99.422,80.901,180.375,180.375,180.375
				c99.48,0,180.38-80.953,180.38-180.375C467.01,143.475,386.11,62.573,286.63,62.573z M286.63,396.937
				c-84.912,0-153.989-69.078-153.989-153.988c0-84.911,69.077-153.989,153.989-153.989c84.915,0,153.994,69.078,153.994,153.989
				C440.624,327.858,371.545,396.937,286.63,396.937z"/>
		</g>
	</g>
</g>
</svg>
