<?xml version="1.0" encoding="utf-8"?>
<!-- Generator: Adobe Illustrator 16.0.0, SVG Export Plug-In . SVG Version: 6.00 Build 0)  -->
<!DOCTYPE svg PUBLIC "-//W3C//DTD SVG 1.1//EN" "http://www.w3.org/Graphics/SVG/1.1/DTD/svg11.dtd">
<svg version="1.1" id="Layer_1" xmlns="http://www.w3.org/2000/svg" xmlns:xlink="http://www.w3.org/1999/xlink" x="0px" y="0px"
	 width="612px" height="409.479px" viewBox="0 0 612 409.479" enable-background="new 0 0 612 409.479" xml:space="preserve">
<g>
	<g>
		<path fill="#FFFFFF" d="M16.249,369.515c1.137-1.42,3.126-1.562,4.404-0.426c7.388,5.967,19.748,12.928,32.677,12.787
			c8.667,0,16.48-2.559,21.88-6.537c5.541-3.977,8.524-9.234,8.524-14.775c0-5.683-2.699-9.945-8.099-13.639
			c-5.398-3.553-13.354-6.252-23.016-8.099h-0.284c-9.235-1.705-17.333-4.263-23.442-8.383c-6.109-3.978-10.229-9.945-10.229-17.333
			c0-7.529,4.12-14.065,10.371-18.611c6.252-4.547,14.634-7.246,24.011-7.246c13.071,0,22.874,6.394,30.688,11.508
			c1.421,0.995,1.847,2.842,0.853,4.404c-0.853,1.421-2.842,1.848-4.263,0.853c-7.813-5.114-16.338-10.514-27.278-10.514
			c-8.098,0-15.344,2.416-20.316,5.968c-4.973,3.693-7.814,8.524-7.814,13.639c0.143,4.973,2.416,8.667,7.389,12.076
			c4.973,3.41,12.36,5.825,21.311,7.53h0.284c9.945,1.847,18.754,4.688,25.289,9.093c6.536,4.263,10.94,10.798,10.94,18.754
			c0,7.957-4.547,15.06-11.225,19.89c-6.677,4.83-15.628,7.814-25.573,7.814c-15.202-0.143-28.415-7.814-36.655-14.35
			C15.396,372.783,15.254,370.794,16.249,369.515z"/>
		<path fill="#FFFFFF" d="M53.33,389.269h-0.01c-16.642-0.156-30.492-9.193-37.267-14.566c-1.686-1.496-1.933-4.082-0.594-5.801
			c0.801-1.002,1.967-1.57,3.205-1.57c0.979,0,1.92,0.359,2.652,1.01c3.614,2.918,16.686,12.537,31.624,12.537l0.378-0.002
			c8.069,0,15.828-2.312,21.298-6.342c5.238-3.76,8.117-8.719,8.117-13.97c0-5.236-2.363-9.188-7.663-12.813
			c-5.115-3.366-12.705-6.035-22.546-7.924l-0.371-0.017c-10.341-1.909-18.133-4.702-23.82-8.537
			c-6.876-4.477-10.67-10.93-10.67-18.162c0-7.467,3.829-14.363,10.783-19.42c6.595-4.796,15.33-7.438,24.599-7.438
			c13.403,0,23.291,6.472,31.236,11.671c1.914,1.34,2.396,3.816,1.148,5.778c-0.683,1.137-1.982,1.857-3.379,1.857
			c-0.83,0-1.626-0.25-2.301-0.723c-7.02-4.594-15.787-10.333-26.705-10.333c-7.397,0-14.591,2.107-19.735,5.781
			c-4.764,3.539-7.396,8.098-7.396,12.825c0.133,4.627,2.213,8.001,6.954,11.251c4.521,3.101,11.531,5.574,20.84,7.355l0.372,0.017
			c11.095,2.061,19.489,5.085,25.665,9.247c7.335,4.783,11.382,11.741,11.382,19.583c0,7.804-4.242,15.349-11.639,20.701
			C72.355,386.427,63.065,389.269,53.33,389.269z M18.665,369.332c-0.628,0-1.224,0.295-1.635,0.809
			c-0.685,0.879-0.546,2.271,0.309,3.033c6.53,5.176,19.953,13.943,35.996,14.096c9.315-0.002,18.188-2.709,24.982-7.625
			c6.87-4.969,10.811-11.924,10.811-19.08c0-7.144-3.725-13.506-10.486-17.916c-5.94-4.003-14.061-6.922-24.835-8.931l-0.38-0.018
			c-9.763-1.86-16.857-4.375-21.688-7.688c-5.258-3.605-7.671-7.575-7.823-12.873c0-5.405,2.919-10.533,8.218-14.47
			c5.491-3.922,13.108-6.165,20.913-6.165c11.514,0,20.559,5.92,27.826,10.677c0.972,0.68,2.318,0.365,2.857-0.53
			c0.698-1.098,0.458-2.352-0.568-3.07c-7.697-5.037-17.309-11.327-30.115-11.327c-8.849,0-17.167,2.506-23.423,7.055
			c-6.422,4.671-9.959,10.993-9.959,17.803c0,6.533,3.472,12.391,9.775,16.495c5.451,3.677,12.968,6.363,22.988,8.221l0.38,0.018
			c10.146,1.939,18.011,4.714,23.378,8.246c5.837,3.992,8.549,8.588,8.549,14.474c0,5.914-3.176,11.449-8.941,15.587
			c-5.795,4.271-13.986,6.725-22.463,6.725l-0.389,0.002c-15.595,0-29.138-9.959-32.916-13.012
			C19.623,369.511,19.152,369.332,18.665,369.332z"/>
	</g>
	<g>
		<path fill="#FFFFFF" d="M122.665,292.085c0-1.848,1.563-3.41,3.41-3.41h0.426h27.705c15.628,0,28.272,12.787,28.272,28.415
			s-12.645,28.272-28.272,28.272l-24.579,0.284v39.07c0,1.848-1.562,3.41-3.552,3.41c-1.847,0-3.41-1.562-3.41-3.41V292.085z
			 M154.206,338.685c11.792-0.142,21.453-9.803,21.453-21.595s-9.661-21.453-21.453-21.453h-24.579v43.048H154.206z"/>
		<path fill="#FFFFFF" d="M126.075,389.126c-2.391,0-4.41-2.02-4.41-4.41v-92.631c0-2.391,2.02-4.41,4.41-4.41h28.131
			c16.141,0,29.272,13.195,29.272,29.415c0,16.141-13.132,29.272-29.272,29.272l-23.579,0.272v38.082
			C130.627,387.148,128.585,389.126,126.075,389.126z M126.075,289.675c-1.284,0-2.41,1.126-2.41,2.41v92.631
			c0,1.285,1.126,2.41,2.41,2.41c1.407,0,2.552-1.08,2.552-2.41v-40.058l25.567-0.296c15.05,0,27.284-12.234,27.284-27.272
			c0-15.117-12.234-27.415-27.272-27.415H126.075z M129.627,339.685h-1v-45.048h25.579c12.381,0,22.453,10.072,22.453,22.453
			c0,12.311-10.067,22.446-22.441,22.595H129.627z M130.627,337.685h23.579c11.272-0.136,20.453-9.374,20.453-20.595
			c0-11.278-9.175-20.453-20.453-20.453h-23.579V337.685z"/>
	</g>
	<g>
		<path fill="#FFFFFF" d="M212.601,292.085c0-1.848,1.563-3.41,3.41-3.41h0.284h50.862c1.989,0,3.41,1.562,3.41,3.41
			c0,1.988-1.421,3.552-3.41,3.552h-47.595v39.354h41.628c1.847,0,3.41,1.562,3.41,3.552c0,1.847-1.563,3.41-3.41,3.41h-41.628
			v39.212h47.595c1.989,0,3.41,1.562,3.41,3.551c0,1.848-1.421,3.41-3.41,3.41h-50.721h-0.426h-0.284
			c-1.705-0.141-3.126-1.562-3.126-3.41V292.085z"/>
		<path fill="#FFFFFF" d="M267.157,389.126h-51.431c-2.388-0.195-4.126-2.088-4.126-4.41v-92.631c0-2.391,2.02-4.41,4.41-4.41
			h51.146c2.473,0,4.41,1.938,4.41,4.41c0,2.595-1.896,4.552-4.41,4.552h-46.595v37.354h40.628c2.432,0,4.41,2.042,4.41,4.552
			c0,2.391-2.02,4.41-4.41,4.41h-40.628v37.212h46.595c2.515,0,4.41,1.957,4.41,4.551
			C271.567,387.189,269.63,389.126,267.157,389.126z M216.011,289.675c-1.284,0-2.41,1.126-2.41,2.41v92.631
			c0,1.271,0.949,2.309,2.209,2.414l0.627-0.004h50.721c1.374,0,2.41-1.035,2.41-2.41c0-1.479-1.014-2.551-2.41-2.551h-48.595
			v-41.212h42.628c1.284,0,2.41-1.126,2.41-2.41c0-1.407-1.081-2.552-2.41-2.552h-42.628v-41.354h48.595
			c1.396,0,2.41-1.073,2.41-2.552c0-1.374-1.036-2.41-2.41-2.41H216.011z"/>
	</g>
	<g>
		<path fill="#FFFFFF" d="M351.269,287.254c12.217,0,23.441,4.263,32.107,10.939c1.562,1.279,1.848,3.694,0.568,4.973
			c-1.137,1.705-3.41,1.848-4.83,0.711c-7.672-5.968-17.332-9.661-27.846-9.661c-24.863,0-44.756,19.464-44.756,43.759
			c0,23.727,19.893,43.191,44.756,43.191c10.514,0,20.174-3.41,27.562-9.662c1.703-1.137,3.977-0.852,4.973,0.854
			c1.42,1.279,1.135,3.836-0.428,4.973c-8.666,6.678-19.891,10.797-32.107,10.797c-28.559,0-51.717-22.447-51.717-50.152
			C299.552,309.702,322.71,287.396,351.269,287.254z"/>
		<path fill="#FFFFFF" d="M351.269,389.126c-29.068,0-52.717-22.947-52.717-51.152c0-13.9,5.486-26.907,15.451-36.625
			c9.908-9.664,23.141-15.025,37.26-15.096c11.773,0,23.395,3.959,32.725,11.147c1.059,0.866,1.689,2.122,1.758,3.465
			c0.057,1.14-0.307,2.178-1.023,2.935c-0.805,1.152-2.07,1.811-3.49,1.811c-1,0-1.973-0.339-2.742-0.954
			c-7.938-6.174-17.354-9.441-27.221-9.441c-24.127,0-43.756,19.182-43.756,42.759c0,23.264,19.629,42.191,43.756,42.191
			c10.174,0,19.734-3.348,26.916-9.426l0.092-0.068c0.834-0.555,1.785-0.85,2.754-0.85c1.482,0,2.799,0.707,3.557,1.9
			c0.783,0.77,1.193,1.881,1.131,3.076c-0.07,1.344-0.725,2.592-1.754,3.34C374.776,385.218,363.157,389.126,351.269,389.126z
			 M351.269,288.254c-28.438,0.142-50.717,21.982-50.717,49.721c0,27.103,22.752,49.152,50.717,49.152
			c11.449,0,22.635-3.76,31.498-10.59c0.559-0.406,0.916-1.105,0.953-1.842c0.035-0.648-0.18-1.229-0.586-1.596l-0.193-0.238
			c-0.387-0.66-1.082-1.039-1.91-1.039c-0.547,0-1.113,0.172-1.602,0.484c-7.537,6.357-17.535,9.859-28.16,9.859
			c-25.229,0-45.756-19.825-45.756-44.191c0-24.68,20.527-44.759,45.756-44.759c10.314,0,20.156,3.414,28.461,9.872
			c0.426,0.341,0.955,0.523,1.502,0.523c0.771,0,1.457-0.364,1.881-1l0.125-0.152c0.359-0.358,0.539-0.889,0.51-1.493
			c-0.039-0.769-0.414-1.516-1.004-1.999C373.784,292.065,362.599,288.254,351.269,288.254z"/>
	</g>
	<g>
		<path fill="#FFFFFF" d="M420.604,292.511c0-1.989,1.562-3.552,3.41-3.552c1.988,0,3.551,1.562,3.551,3.552v57.54l60.098-60.098
			c1.422-1.278,3.695-1.278,4.83,0c1.422,1.279,1.422,3.552,0,4.973l-38.074,38.076l38.928,49.443
			c1.137,1.562,0.852,3.551-0.568,4.973c-0.711,0.568-1.42,0.709-2.273,0.709c-0.994,0-1.848-0.283-2.557-1.277l-38.502-48.875
			l-21.881,21.88v24.862c0,1.848-1.562,3.41-3.551,3.41c-1.848,0-3.41-1.562-3.41-3.41V292.511z"/>
		<path fill="#FFFFFF" d="M490.505,389.126c-1.473,0-2.545-0.539-3.371-1.697l-37.777-47.952l-20.791,20.791v24.448
			c0,2.432-2.041,4.41-4.551,4.41c-2.391,0-4.41-2.02-4.41-4.41v-92.206c0-2.51,1.979-4.552,4.41-4.552
			c2.553,0,4.551,1.999,4.551,4.552v55.126l58.391-58.391c0.896-0.809,2.061-1.252,3.23-1.252c1.189,0,2.285,0.456,3.018,1.253
			c0.842,0.778,1.322,1.85,1.354,3.022c0.033,1.242-0.461,2.469-1.357,3.363l-37.447,37.448l38.379,48.745
			c1.434,1.969,1.164,4.488-0.646,6.299l-0.082,0.072C492.38,389.017,491.364,389.126,490.505,389.126z M449.534,336.472
			l39.199,49.758c0.475,0.664,0.947,0.896,1.771,0.896c0.73,0,1.172-0.125,1.605-0.457c1.07-1.1,1.238-2.521,0.428-3.637
			l-39.455-50.11l38.703-38.704c0.51-0.509,0.791-1.2,0.771-1.896c-0.016-0.638-0.277-1.215-0.732-1.626l-0.08-0.079
			c-0.727-0.817-2.453-0.786-3.412,0.079l-61.768,61.769v-59.954c0-1.431-1.121-2.552-2.551-2.552c-1.33,0-2.41,1.145-2.41,2.552
			v92.206c0,1.285,1.125,2.41,2.41,2.41c1.406,0,2.551-1.08,2.551-2.41V359.44L449.534,336.472z"/>
	</g>
	<g>
		<path fill="#FFFFFF" d="M523.329,369.515c1.137-1.42,3.125-1.562,4.404-0.426c7.387,5.967,19.748,12.928,32.676,12.787
			c8.668,0,16.48-2.559,21.881-6.537c5.541-3.977,8.523-9.234,8.523-14.775c0-5.683-2.699-9.945-8.098-13.639
			c-5.398-3.553-13.355-6.252-23.016-8.099h-0.285c-9.234-1.705-17.332-4.263-23.441-8.383c-6.109-3.978-10.23-9.945-10.23-17.333
			c0-7.529,4.121-14.065,10.371-18.611c6.252-4.547,14.635-7.246,24.012-7.246c13.07,0,22.873,6.394,30.688,11.508
			c1.422,0.995,1.848,2.842,0.854,4.404c-0.854,1.421-2.842,1.848-4.264,0.853c-7.812-5.114-16.338-10.514-27.277-10.514
			c-8.098,0-15.344,2.416-20.316,5.968c-4.973,3.693-7.814,8.524-7.814,13.639c0.143,4.973,2.416,8.667,7.389,12.076
			c4.973,3.41,12.359,5.825,21.311,7.53h0.283c9.945,1.847,18.754,4.688,25.289,9.093c6.537,4.263,10.941,10.798,10.941,18.754
			c0,7.957-4.547,15.06-11.225,19.89s-15.629,7.814-25.574,7.814c-15.201-0.143-28.414-7.814-36.654-14.35
			C522.476,372.783,522.333,370.794,523.329,369.515z"/>
		<path fill="#FFFFFF" d="M560.409,389.269h-0.01c-16.641-0.156-30.492-9.193-37.266-14.566c-1.686-1.496-1.934-4.082-0.594-5.801
			c0.801-1.002,1.967-1.57,3.205-1.57c0.979,0,1.92,0.359,2.652,1.01c3.613,2.918,16.686,12.537,31.623,12.537l0.379-0.002
			c8.068,0,15.828-2.312,21.297-6.342c5.238-3.76,8.117-8.719,8.117-13.97c0-5.236-2.363-9.188-7.662-12.813
			c-5.115-3.366-12.705-6.035-22.547-7.924l-0.371-0.017c-10.34-1.909-18.133-4.702-23.82-8.537
			c-6.875-4.477-10.67-10.93-10.67-18.162c0-7.467,3.83-14.363,10.783-19.42c6.596-4.796,15.33-7.438,24.6-7.438
			c13.402,0,23.291,6.472,31.236,11.671c1.914,1.34,2.396,3.816,1.148,5.778c-0.684,1.137-1.982,1.857-3.379,1.857
			c-0.83,0-1.627-0.25-2.301-0.723c-7.02-4.594-15.787-10.333-26.705-10.333c-7.398,0-14.592,2.107-19.736,5.781
			c-4.764,3.539-7.395,8.098-7.395,12.825c0.133,4.627,2.213,8.001,6.953,11.251c4.521,3.101,11.531,5.574,20.84,7.355l0.373,0.017
			c11.094,2.061,19.488,5.085,25.664,9.247c7.336,4.783,11.383,11.741,11.383,19.583c0,7.804-4.242,15.349-11.639,20.701
			C579.435,386.427,570.146,389.269,560.409,389.269z M525.745,369.332c-0.629,0-1.225,0.295-1.635,0.809
			c-0.686,0.879-0.547,2.271,0.309,3.033c6.529,5.176,19.953,13.943,35.996,14.096c9.314-0.002,18.188-2.709,24.982-7.625
			c6.869-4.969,10.811-11.924,10.811-19.08c0-7.144-3.725-13.506-10.486-17.916c-5.941-4.003-14.061-6.922-24.836-8.931
			l-0.379-0.018c-9.764-1.86-16.857-4.375-21.689-7.688c-5.258-3.605-7.67-7.575-7.822-12.873c0-5.405,2.918-10.533,8.217-14.47
			c5.492-3.922,13.109-6.165,20.914-6.165c11.514,0,20.559,5.92,27.826,10.677c0.971,0.68,2.318,0.365,2.857-0.53
			c0.697-1.098,0.457-2.352-0.568-3.07c-7.697-5.037-17.309-11.327-30.115-11.327c-8.85,0-17.168,2.506-23.424,7.055
			c-6.422,4.671-9.959,10.993-9.959,17.803c0,6.533,3.473,12.391,9.775,16.495c5.451,3.677,12.969,6.363,22.988,8.221l0.381,0.018
			c10.145,1.939,18.01,4.714,23.377,8.246c5.838,3.992,8.549,8.588,8.549,14.474c0,5.914-3.176,11.449-8.941,15.587
			c-5.795,4.271-13.986,6.725-22.463,6.725l-0.389,0.002c-15.594,0-29.137-9.959-32.916-13.012
			C526.702,369.511,526.231,369.332,525.745,369.332z"/>
	</g>
</g>
<path fill="none" stroke="#FFFFFF" stroke-width="13" stroke-miterlimit="10" d="M306.731,226.458
	c-56.195,0-101.912-45.718-101.912-101.912S250.537,22.634,306.731,22.634c56.199,0,101.916,45.718,101.916,101.912
	S362.931,226.458,306.731,226.458"/>
<g>
	<g>
		<g>
			<path fill="#FDFDFE" d="M351.948,168.49c0,9.577-7.764,17.346-17.344,17.346c-9.592,0-17.354-7.769-17.354-17.346
				c0-9.585,7.762-17.354,17.354-17.354C344.185,151.136,351.948,158.905,351.948,168.49z"/>
			<path fill="#FDFDFE" d="M291.612,128.522c0,12.163-9.864,22.033-22.041,22.033c-12.166,0-22.037-9.87-22.037-22.033
				c0-12.176,9.871-22.04,22.037-22.04C281.748,106.482,291.612,116.347,291.612,128.522z"/>
			<g>
				<path fill="#FDFDFE" d="M325.538,70.506c-0.123,8.432-7.551,15.09-15.951,14.114c-5.465-0.669-10.516-4.338-12.283-9.658
					c-1.834-5.404-0.402-11.673,4.066-15.397c4.277-3.601,10.357-4.487,15.492-2.168C322.05,59.75,325.446,64.79,325.538,70.506
					c0-0.217-0.34-0.463-0.682-0.523c-0.301-0.062-0.604,0-0.604,0.307c0,0.245,0.303,0.428,0.604,0.49
					C325.198,70.869,325.538,70.807,325.538,70.506z"/>
				<path fill="#FDFDFE" d="M324.89,70.376c0,0.13,0,0.28-0.033,0.403c-0.301-0.062-0.604-0.245-0.604-0.49
					c0-0.307,0.303-0.369,0.604-0.307C324.89,70.104,324.89,70.261,324.89,70.376z"/>
				<path fill="#FDFDFE" d="M325.538,70.506c0,0.301-0.34,0.363-0.682,0.273c-0.301-0.062-0.604-0.245-0.604-0.49
					c0-0.307,0.303-0.369,0.604-0.307C325.198,70.043,325.538,70.289,325.538,70.506z"/>
			</g>
			<g>
				<path fill="#FDFDFE" d="M331.396,104.709c-0.082,5.239-4.82,9.639-10.186,8.636c-4.359-0.839-8.213-4.863-8.127-9.476
					c0.123-5.197,4.857-9.637,10.184-8.635C327.753,96.121,331.313,100.099,331.396,104.709c0-0.164-0.25-0.415-0.461-0.579
					c-0.209-0.137-0.461-0.261-0.502-0.261c0,0.213,0.25,0.425,0.502,0.595C331.187,104.669,331.396,104.75,331.396,104.709z"/>
				<path fill="#FDFDFE" d="M330.935,104.13v0.334c-0.252-0.17-0.502-0.382-0.502-0.595
					C330.474,103.869,330.726,103.993,330.935,104.13z"/>
				<path fill="#FDFDFE" d="M331.396,104.709c0,0.041-0.209-0.04-0.461-0.245c-0.252-0.17-0.502-0.382-0.502-0.595
					c0.041,0,0.293,0.124,0.502,0.261C331.146,104.294,331.396,104.545,331.396,104.709z"/>
			</g>
			<g>
				<path fill="#FDFDFE" d="M305.794,168.49c0,4.795-3.889,8.669-8.67,8.669c-4.789,0-8.684-3.874-8.684-8.669
					c0-4.797,3.895-8.678,8.684-8.678C301.905,159.812,305.794,163.693,305.794,168.49z"/>
				<path fill="#FDFDFE" d="M305.155,168.688c-0.096,4.816-3.98,8.834-8.949,8.104c-4.154-0.6-7.041-4.435-7.128-8.5
					c-0.1-4.836,4.15-8.812,8.957-8.11C302.192,160.781,305.081,164.629,305.155,168.688c0.008,0.129,1.275-0.067,1.275-0.396
					c-0.105-5.348-4.723-9.209-9.986-8.656c-4.73,0.492-8.537,4.229-8.636,9.053c-0.108,5.361,4.888,9.182,9.98,8.648
					c4.727-0.49,8.545-4.222,8.643-9.045C306.431,168.183,305.163,168.354,305.155,168.688z"/>
			</g>
			<g>
				<path fill="#FDFDFE" d="M316.616,128.522c0,1.678-1.379,3.036-3.047,3.036c-1.67,0-3.037-1.358-3.037-3.036
					s1.367-3.042,3.037-3.042C315.237,125.48,316.616,126.845,316.616,128.522z"/>
				<path fill="#FDFDFE" d="M315.976,128.407c-0.072,1.281-0.844,2.292-2.096,2.64c-1.572,0.43-2.633-1.052-2.701-2.416
					c-0.064-1.268,0.941-2.318,2.084-2.639C314.829,125.562,315.894,127.035,315.976,128.407c0.029,0.538,1.318,0.846,1.281,0.224
					c-0.242-4.419-7.117-4.855-7.363-0.224c-0.105,1.883,1.77,3.492,3.537,3.595c2.07,0.108,3.717-1.29,3.826-3.371
					C317.284,128.093,316.009,127.766,315.976,128.407z"/>
			</g>
			<g>
				<path fill="#FDFDFE" d="M308.704,144.116c0,1.972-1.602,3.574-3.576,3.574c-1.971,0-3.57-1.603-3.57-3.574
					c0-1.979,1.6-3.574,3.57-3.574C307.103,140.542,308.704,142.138,308.704,144.116z"/>
				<path fill="#FDFDFE" d="M308.231,143.857c-0.18,3.629-5.992,4.598-6.201,0.519C301.841,140.692,308.032,139.84,308.231,143.857
					c0.029,0.463,0.98,1.289,0.943,0.519c-0.117-2.196-1.621-4.059-3.828-4.399c-2.387-0.363-4.146,1.671-4.254,3.881
					c-0.111,2.168,1.777,4.086,3.816,4.4c2.385,0.36,4.148-1.671,4.266-3.882C309.198,143.911,308.272,143.08,308.231,143.857z"/>
			</g>
			<g>
				<path fill="#FDFDFE" d="M340.548,137.567c0,1.637-1.332,2.975-2.977,2.975c-1.631,0-2.967-1.338-2.967-2.975
					c0-1.638,1.336-2.968,2.967-2.968C339.216,134.6,340.548,135.93,340.548,137.567z"/>
				<path fill="#FDFDFE" d="M339.897,137.711c-0.074,1.509-1.18,3.077-2.934,2.396c-1.098-0.438-1.654-1.569-1.719-2.676
					c-0.082-1.554,1.367-3.008,2.939-2.394C339.284,135.468,339.837,136.6,339.897,137.711c0.014,0.191,1.324,0.021,1.303-0.28
					c-0.23-4.345-7.035-3.771-7.248,0.28c-0.229,4.318,7.029,3.772,7.248-0.28C341.204,137.268,339.917,137.378,339.897,137.711z"/>
			</g>
			<g>
				<path fill="#FDFDFE" d="M300.095,106.482c0,1.645-1.33,2.988-2.971,2.988c-1.648,0-2.979-1.344-2.979-2.988
					c0-1.643,1.33-2.98,2.979-2.98C298.765,103.502,300.095,104.84,300.095,106.482z"/>
				<path fill="#FDFDFE" d="M299.438,106.442c-0.064,1.296-0.924,2.319-2.217,2.53c-1.457,0.238-2.355-1.188-2.432-2.428
					c-0.064-1.29,1.027-2.354,2.221-2.552C298.474,103.761,299.374,105.193,299.438,106.442c0.041,0.593,1.344,0.777,1.307,0.103
					c-0.242-4.441-7.006-4.66-7.25-0.103c-0.113,2.005,1.865,3.403,3.672,3.506c2.002,0.103,3.477-1.521,3.578-3.403
					C300.78,105.95,299.479,105.753,299.438,106.442z"/>
			</g>
			<g>
				<path fill="#FDFDFE" d="M288.44,86.878c0,3.349-2.719,6.064-6.067,6.064c-3.36,0-6.078-2.716-6.078-6.064
					c0-3.355,2.718-6.077,6.078-6.077C285.721,80.801,288.44,83.522,288.44,86.878z"/>
				<path fill="#FDFDFE" d="M287.782,86.831c-0.096,2.974-2.18,5.381-5.188,5.646c-3.159,0.288-5.542-2.618-5.631-5.552
					c-0.096-2.968,2.306-5.403,5.181-5.662C285.306,80.978,287.693,83.897,287.782,86.831c0.011,0.62,1.337,0.694,1.319,0.095
					c-0.105-3.71-3.025-6.467-6.698-6.575c-3.673-0.117-6.661,2.878-6.771,6.48c-0.109,3.71,3.196,6.459,6.709,6.567
					c3.66,0.109,6.654-2.871,6.76-6.473C289.119,86.305,287.792,86.224,287.782,86.831z"/>
			</g>
		</g>
	</g>
</g>
</svg>
